<svg width="1440" height="134" viewBox="0 0 1440 134" fill="none" xmlns="http://www.w3.org/2000/svg">
<path fill-rule="evenodd" clip-rule="evenodd" d="M0 36.9655L24 46.2069C48 55.4483 96 73.931 144 78.5517C192 83.1724 240 73.931 288 67C336 60.069 384 55.4483 432 53.1379C480 50.8276 528 50.8276 576 55.4483C624 60.069 672 69.3103 720 69.3103C768 69.3103 816 60.069 864 53.1379C912 46.2069 960 41.5862 1008 34.6552C1056 27.7241 1104 18.4828 1152 11.5517C1200 4.62069 1248 0 1296 0C1344 0 1392 4.62069 1416 6.93103L1440 9.24138V134H1416C1392 134 1344 134 1296 134C1248 134 1200 134 1152 134C1104 134 1056 134 1008 134C960 134 912 134 864 134C816 134 768 134 720 134C672 134 624 134 576 134C528 134 480 134 432 134C384 134 336 134 288 134C240 134 192 134 144 134C96 134 48 134 24 134H0V36.9655Z" fill="#6930C3"/>
</svg>
