<?xml version="1.0" encoding="utf-8"?>
<!-- Generator: Adobe Illustrator 25.2.0, SVG Export Plug-In . SVG Version: 6.00 Build 0)  -->
<svg version="1.1" id="Layer_1" xmlns="http://www.w3.org/2000/svg" xmlns:xlink="http://www.w3.org/1999/xlink" x="0px" y="0px"
	 viewBox="0 0 1440 320" style="enable-background:new 0 0 1440 320;" xml:space="preserve">
<style type="text/css">
	.st0{fill:#6930C3;}
	.st1{opacity:8.000000e-02;fill:#6930C3;}
</style>
<path class="st0" d="M-11,75l40,10c40,10.2,120,29.8,200,32.5c80,2.5,160-12.5,240-25C549,80.1,629,69.8,709,80
	c80,10,160,40,240,49.9c80,10.2,160-0.1,240-15c80-15.1,160-34.8,200-45l40-10V0h-40c-40,0-120,0-200,0s-160,0-240,0S789,0,709,0
	S549,0,469,0S309,0,229,0S69,0,29,0h-40V75z"/>
<path class="st1" d="M-34,88l40,10c40,10.2,120,29.8,200,32.5c80,2.5,160-12.5,240-25C526,93.1,606,82.8,686,93
	c80,10,160,40,240,49.9c80,10.2,160-0.1,240-15c80-15.1,160-34.8,200-45l40-10V13h-40c-40,0-120,0-200,0s-160,0-240,0s-160,0-240,0
	s-160,0-240,0s-160,0-240,0S46,13,6,13h-40V88z"/>
<path class="st1" d="M-34,80l40,10c40,10.2,120,29.8,200,32.5c80,2.5,160-12.5,240-25C526,85.1,606,74.8,686,85
	c80,10,160,40,240,49.9c80,10.2,160-0.1,240-15c80-15.1,160-34.8,200-45l40-10V5h-40c-40,0-120,0-200,0s-160,0-240,0S766,5,686,5
	S526,5,446,5S286,5,206,5S46,5,6,5h-40V80z"/>
</svg>
