<?xml version="1.0" encoding="utf-8"?>
<!-- Generator: Adobe Illustrator 25.2.0, SVG Export Plug-In . SVG Version: 6.00 Build 0)  -->
<svg version="1.1" id="Layer_1" xmlns="http://www.w3.org/2000/svg" xmlns:xlink="http://www.w3.org/1999/xlink" x="0px" y="0px"
	 viewBox="0 0 1440 320" style="enable-background:new 0 0 1440 320;" xml:space="preserve">
<style type="text/css">
	.st0{display:none;fill:#93329E;}
	.st1{fill:#93329E;}
	.st2{opacity:8.000000e-02;fill:#93329E;}
</style>
<path class="st0" d="M0,484.1l48-22c48-22.5,144-65.9,240-93.9c96-27.9,192-38.3,288-16.6s192,77.6,288,71.7
	c96-5.5,192-71.7,288-71.7s192,66.2,240,99.3l48,33.1v66.2h-48c-48,0-144,0-240,0s-192,0-288,0s-192,0-288,0s-192,0-288,0
	s-192,0-240,0H0V484.1z"/>
<path class="st1" d="M0,253.1l48-22c48-22.5,144-65.9,240-93.9s192-38.3,288-16.6s192,77.6,288,71.7c96-5.5,192-71.7,288-71.7
	s192,66.2,240,99.3l48,33.1v66.2h-48c-48,0-144,0-240,0s-192,0-288,0s-192,0-288,0s-192,0-288,0s-192,0-240,0H0V253.1z"/>
<path class="st2" d="M-13,240.1l48-22c48-22.5,144-65.9,240-93.9s192-38.3,288-16.6s192,77.6,288,71.7c96-5.5,192-71.7,288-71.7
	s192,66.2,240,99.3l48,33.1v66.2h-48c-48,0-144,0-240,0s-192,0-288,0s-192,0-288,0s-192,0-288,0s-192,0-240,0h-48V240.1z"/>
<path class="st2" d="M-27,234.1l48-22c48-22.5,144-65.9,240-93.9s192-38.3,288-16.6s192,77.6,288,71.7c96-5.5,192-71.7,288-71.7
	s192,66.2,240,99.3l48,33.1v66.2h-48c-48,0-144,0-240,0s-192,0-288,0s-192,0-288,0s-192,0-288,0s-192,0-240,0h-48V234.1z"/>
</svg>
