<?xml version="1.0" encoding="utf-8"?>
<!-- Generator: Adobe Illustrator 25.2.0, SVG Export Plug-In . SVG Version: 6.00 Build 0)  -->
<svg version="1.1" id="Layer_1" xmlns="http://www.w3.org/2000/svg" xmlns:xlink="http://www.w3.org/1999/xlink" x="0px" y="0px"
	 viewBox="0 0 144 144" style="enable-background:new 0 0 144 144;" xml:space="preserve">
<style type="text/css">
	.st0{fill:none;}
	.st1{fill:none;stroke:#64DFDF;stroke-miterlimit:10;}
	.st2{fill:#64DFDF;}
	.st3{fill:#6930C3;}
	.st4{fill:none;stroke:#6930C3;stroke-miterlimit:10;}
	.st5{fill:#93329E;}
	.st6{fill:none;stroke:#80FFDB;stroke-miterlimit:10;}
	.st7{fill:#FFFFFF;}
	.st8{fill:#252525;}
	.st9{fill:#80FFDB;}
	.st10{fill:url(#New_Pattern_Swatch_1);stroke:#64DFDF;stroke-miterlimit:10;}
</style>
<pattern  x="-329.41" y="12.9" width="84.87" height="86.38" patternUnits="userSpaceOnUse" id="New_Pattern_Swatch_1" viewBox="0 -86.76 84.87 86.38" style="overflow:visible;">
	<g>
		<rect y="-86.76" class="st0" width="84.87" height="86.38"/>
		<circle class="st1" cx="45.39" cy="-65.33" r="5.3"/>
		<circle class="st2" cx="62.34" cy="-81.46" r="5.3"/>
		<path class="st3" d="M84.87-69.95c0-3.82-2.93-6.96-6.67-7.28v14.57C81.94-62.99,84.87-66.12,84.87-69.95z"/>
		<path class="st4" d="M13.03-3.74c2.32,3.04,6.56,3.74,9.73,1.73L13.9-13.58C11.13-11.05,10.71-6.78,13.03-3.74z"/>
		<path class="st5" d="M19.98-83.76c-0.43-0.04-0.85-0.07-1.29-0.07c-7.6,0-13.84,5.79-14.56,13.2h15.85V-83.76z"/>
		<path class="st1" d="M83.06-49.28c-0.43-0.04-0.85-0.07-1.29-0.07c-7.6,0-13.84,5.79-14.56,13.2h15.85V-49.28z"/>
		<polygon class="st3" points="36.61,-49.35 32.24,-49.35 30.21,-49.35 30.21,-42.82 36.73,-42.82 36.73,-49.35 		"/>
		<polygon class="st6" points="3.9,-46.77 1.72,-44.6 0.71,-43.58 12.15,-32.14 15.41,-35.4 3.96,-46.84 		"/>
		<polygon class="st5" points="43.85,-23.6 42.29,-25.14 41.57,-25.86 33.47,-17.68 35.8,-15.37 43.9,-23.55 		"/>
		<polygon class="st4" points="75.09,-15.37 71.51,-15.37 69.84,-15.37 69.84,-10.02 75.19,-10.02 75.19,-15.37 		"/>
	</g>
</pattern>
<circle class="st7" cx="72" cy="73.23" r="62.42"/>
<path class="st7" d="M292.19,138.9H189.46c-6.37,0-11.53-5.16-11.53-11.53V19.09c0-6.37,5.16-11.53,11.53-11.53h102.72
	c6.37,0,11.53,5.16,11.53,11.53v108.28C303.72,133.74,298.55,138.9,292.19,138.9z"/>
<path class="st3" d="M-267.86,57.87c0-8.07-6.54-14.62-14.62-14.62c-8.07,0-14.62,6.54-14.62,14.62c0,8.07,6.54,14.62,14.62,14.62
	V57.87H-267.86z"/>
<g>
	<circle class="st2" cx="258.5" cy="91.03" r="15.21"/>
	<path class="st3" d="M282.8,73.23c0-23.18-18.8-41.98-41.98-41.98c-23.18,0-41.98,18.8-41.98,41.98c0,23.19,18.8,41.98,41.98,41.98
		V73.23H282.8z"/>
</g>
<circle class="st2" cx="99.88" cy="99.68" r="18.83"/>
<path class="st3" d="M123.76,73.36c0-28.7-23.27-51.97-51.97-51.97c-28.7,0-51.97,23.27-51.97,51.97c0,28.7,23.27,51.97,51.97,51.97
	V73.36H123.76z"/>
<rect x="-290.34" y="179.55" class="st3" width="16.22" height="16.22"/>
<rect x="-312.19" y="179.55" class="st8" width="16.22" height="16.22"/>
<rect x="-268.48" y="179.55" class="st5" width="16.22" height="16.22"/>
<rect x="-246.63" y="179.55" class="st2" width="16.22" height="16.22"/>
<rect x="-224.77" y="179.55" class="st9" width="16.22" height="16.22"/>
<text transform="matrix(1 0 0 1 -315.7769 33.3018)" style="font-family:'MyriadPro-Regular'; font-size:12px;">Logo</text>
<circle class="st1" cx="-105.76" cy="54.6" r="5.3"/>
<circle class="st2" cx="-96.64" cy="30.51" r="5.3"/>
<path class="st3" d="M-74.11,42.02c0-3.82-2.93-6.96-6.67-7.28v14.57C-77.04,48.98-74.11,45.85-74.11,42.02z"/>
<path class="st2" d="M-80.1,100.12c2.37-2.68,2.25-6.7-0.17-9.25l-9.03,10.23C-86.47,103.18-82.47,102.8-80.1,100.12z"/>
<path class="st4" d="M-152.08,96.41c2.32,3.04,6.56,3.74,9.73,1.73l-8.86-11.57C-153.98,89.1-154.4,93.37-152.08,96.41z"/>
<path class="st5" d="M-139,28.21c-0.43-0.04-0.85-0.07-1.29-0.07c-7.6,0-13.84,5.79-14.56,13.2H-139V28.21z"/>
<path class="st1" d="M-75.92,62.69c-0.43-0.04-0.85-0.07-1.29-0.07c-7.6,0-13.84,5.79-14.56,13.2h15.85V62.69z"/>
<polygon class="st3" points="-127.8,60.69 -132.16,60.69 -134.2,60.69 -134.2,67.22 -127.67,67.22 -127.67,60.69 "/>
<polygon class="st6" points="-127.61,87.03 -128.97,88.39 -129.61,89.03 -122.46,96.17 -120.43,94.14 -127.57,86.99 "/>
<polygon class="st5" points="-104.41,101.76 -105.97,100.22 -106.7,99.5 -114.79,107.68 -112.46,109.99 -104.37,101.81 "/>
<polygon class="st4" points="-144.88,61.28 -148.46,61.28 -150.13,61.28 -150.13,66.63 -144.78,66.63 -144.78,61.28 "/>
<circle class="st1" cx="-324.36" cy="140.87" r="5.3"/>
<circle class="st2" cx="-311.53" cy="140.87" r="5.3"/>
<path class="st3" d="M-223.34,101.56c0-7.65-5.87-13.91-13.34-14.57v29.14C-229.21,115.48-223.34,109.21-223.34,101.56z"/>
<path class="st4" d="M-204.57,117.15c0-7.65-5.87-13.91-13.34-14.57v29.14C-210.44,131.06-204.57,124.8-204.57,117.15z"/>
<path class="st5" d="M-282.48,116.2c-0.43-0.04-0.85-0.07-1.29-0.07c-7.6,0-13.84,5.79-14.56,13.2h15.85V116.2z"/>
<path class="st1" d="M-263.04,116.2c-0.43-0.04-0.85-0.07-1.29-0.07c-7.6,0-13.84,5.79-14.56,13.2h15.85V116.2z"/>
<polygon class="st3" points="-305.89,119.68 -312.98,119.68 -316.28,119.68 -316.28,130.27 -305.69,130.27 -305.69,119.68 "/>
<polygon class="st6" points="-271.19,88.56 -274.27,88.56 -275.71,88.56 -275.71,104.74 -271.1,104.74 -271.1,88.56 "/>
<polygon class="st5" points="-278.24,88.56 -281.32,88.56 -282.76,88.56 -282.76,104.74 -278.15,104.74 -278.15,88.56 "/>
<polygon class="st4" points="-319.27,119.68 -326.36,119.68 -329.66,119.68 -329.66,130.27 -319.07,130.27 -319.07,119.68 "/>
<rect x="-213.35" y="148.82" class="st10" width="65.9" height="3.92"/>
</svg>
