<svg width="111" height="28" viewBox="0 0 111 28" fill="none" xmlns="http://www.w3.org/2000/svg">
<path d="M3.78601 3C8.98784 3 8.98784 25 14.1897 25C19.3915 25 19.3915 3 24.5933 3C29.7952 3 29.7952 25 34.9848 25C40.1868 25 40.1868 3 45.3763 3C50.5782 3 50.5782 25 55.7677 25C60.9697 25 60.9697 3 66.1712 3C71.3732 3 71.3732 25 76.5751 25C81.7767 25 81.7767 3 86.9786 3C92.1806 3 92.1806 25 97.3825 25C102.584 25 102.584 3 107.786 3" stroke="#64DFDF" stroke-width="6" stroke-miterlimit="10" stroke-linecap="round"/>
</svg>
